<svg id="Слой_1" data-name="Слой 1" xmlns="http://www.w3.org/2000/svg" viewBox="0 0 868.4 265.28"><defs><style>.cls-1{fill:#121d21;}</style></defs><path class="cls-1" d="M1183.54,571.53q-2.19-7.14-9.58-7.15-11.54,0-11.53,14,0,14.4,11.3,14.4,8.16,0,10.23-8.9l6.38,1.81q-3.54,12.38-16.38,12.37-8.46,0-13.36-5.22t-4.85-14.35q0-9,5-14.24t13.49-5.27q9.63,0,14,7a17.71,17.71,0,0,1,1.72,4.08Z" transform="translate(-545.6 -384.72)"/><path class="cls-1" d="M1197,564.27q5.2-5.28,13.84-5.27t13.78,5.33q5.14,5.32,5.14,14.23t-5.14,14.24q-5.15,5.28-13.9,5.28T1197,592.75q-5.15-5.34-5.15-14.35Q1191.82,569.6,1197,564.27Zm4.85,24.68a12.35,12.35,0,0,0,17.92,0q3.32-3.81,3.32-10.27,0-14.29-12.31-14.3a11.28,11.28,0,0,0-9,3.75q-3.24,3.74-3.25,10.38T1201.87,589Z" transform="translate(-545.6 -384.72)"/><path class="cls-1" d="M1232.51,559.68h26.84V565h-20.28v10.44h17.51v5.33h-17.51v16.67h-6.56Z" transform="translate(-545.6 -384.72)"/><path class="cls-1" d="M1264,559.68h26.85V565h-20.29v10.44h17.51v5.33h-17.51v16.67H1264Z" transform="translate(-545.6 -384.72)"/><path class="cls-1" d="M1295.54,559.68h28.86V565h-22.29v10h20.82v5.33h-20.82v11.68h23.18v5.39h-29.75Z" transform="translate(-545.6 -384.72)"/><path class="cls-1" d="M1329.91,559.68h28.85V565h-22.29v10h20.82v5.33h-20.82v11.68h23.18v5.39h-29.74Z" transform="translate(-545.6 -384.72)"/><path class="cls-1" d="M1407.61,580.89a25.8,25.8,0,0,1-3.37,7.83,32.85,32.85,0,0,0,6.15,5.1l-3.85,4.54a21,21,0,0,1-6.2-4.82,15.58,15.58,0,0,1-11.54,4.54,14,14,0,0,1-9.4-3.12,10.05,10.05,0,0,1-3.67-8q0-7,9.23-11.29-4.26-4.75-4.26-8.34a7.5,7.5,0,0,1,2.9-6,11.31,11.31,0,0,1,7.33-2.38,11.08,11.08,0,0,1,7.27,2.32,7.5,7.5,0,0,1,2.84,6q0,5.11-7.33,9.14l6.33,7.88a20.83,20.83,0,0,0,1.77-4.82Zm-25.43,6a6,6,0,0,0,1.89,4.42,6.36,6.36,0,0,0,4.55,1.87,10.08,10.08,0,0,0,7.81-3.8q-1.83-1.82-4.08-4.48t-4.26-5.44Q1382.18,582.77,1382.18,586.85Zm10.41-15.38q2.72-1.86,2.72-4.14,0-3.92-4.32-3.91t-4.2,3.46a6.06,6.06,0,0,0,1.83,3.74l2,2.21Z" transform="translate(-545.6 -384.72)"/><path class="cls-1" d="M1117.25,623.26q-2.19-7.14-9.58-7.14-11.52,0-11.53,14,0,14.4,11.3,14.4,8.16,0,10.23-8.9l6.39,1.81q-3.55,12.38-16.39,12.37-8.46,0-13.36-5.22t-4.85-14.35q0-9,5-14.24t13.48-5.27q9.65,0,14,7a17.63,17.63,0,0,1,1.72,4.09Z" transform="translate(-545.6 -384.72)"/><path class="cls-1" d="M1130.73,616q5.22-5.28,13.84-5.27t13.79,5.33q5.13,5.33,5.14,14.24t-5.14,14.23q-5.16,5.28-13.91,5.28t-13.77-5.33q-5.15-5.34-5.15-14.35Q1125.53,621.34,1130.73,616Zm4.85,24.68a12.35,12.35,0,0,0,17.92,0q3.32-3.81,3.32-10.27,0-14.29-12.3-14.29-5.74,0-9,3.74c-2.17,2.49-3.26,6-3.26,10.38S1133.38,638.14,1135.58,640.68Z" transform="translate(-545.6 -384.72)"/><path class="cls-1" d="M1205.9,611.41v37.77h-6.27V616.12L1189,649.18h-6l-10.58-33.06v33.06h-6.15V611.41h10.53l9.4,29.61,9.58-29.61Z" transform="translate(-545.6 -384.72)"/><path class="cls-1" d="M1251.2,611.41v37.77h-6.27V616.12l-10.65,33.06h-6l-10.58-33.06v33.06h-6.15V611.41H1222l9.4,29.61,9.58-29.61Z" transform="translate(-545.6 -384.72)"/><path class="cls-1" d="M1263.32,611.41v21.16c0,4,.42,6.76,1.24,8.28,1.38,2.38,4,3.57,7.87,3.57s6.54-1.13,7.8-3.4q1.3-2.5,1.31-8.23V611.41h6.5v20.87q0,8-2.07,11.63a10.48,10.48,0,0,1-4.2,4,20.2,20.2,0,0,1-9.28,1.87q-10.17,0-13.66-5.9-2-3.4-2-11.46v-21Z" transform="translate(-545.6 -384.72)"/><path class="cls-1" d="M1294.07,611.41h6.45l17.5,26.15,1.42,2.32v-.34a36.9,36.9,0,0,1-.23-4.19l-.12-23.94h6.15v37.77h-6.56L1300,621.62a2.76,2.76,0,0,0-.24-.46l.24,2.78.17,25.24h-6.09Z" transform="translate(-545.6 -384.72)"/><path class="cls-1" d="M1331.33,611.41h6.5v37.77h-6.5Z" transform="translate(-545.6 -384.72)"/><path class="cls-1" d="M1356.81,616.74h-12.35v-5.33h31.28v5.33h-12.36v32.44h-6.57Z" transform="translate(-545.6 -384.72)"/><path class="cls-1" d="M1414,611.41l-15.14,21.84v15.93h-6.5V633.25l-14.85-21.84h7.75l10.64,16.39,10.59-16.39Z" transform="translate(-545.6 -384.72)"/><path class="cls-1" d="M603.05,508.67H545.6v-120h62.72q19.23,0,28.73,8.4t9.51,23a25.18,25.18,0,0,1-16.2,23.67,29.17,29.17,0,0,1,14.42,10.11q5.54,7.23,5.55,19.16,0,16.8-11.68,26.19T603.05,508.67Zm.19-96.84H573.67V435.5H604q14.13,0,14.13-11.93Q618.12,411.83,603.24,411.83Zm1.88,44.26H573.67V485.9h31.26q7.92,0,12.34-4.15t4.43-11.38Q621.7,456.09,605.12,456.09Z" transform="translate(-545.6 -384.72)"/><path class="cls-1" d="M754.68,508.67H726.05V477.05q0-8.49-3.39-11.74t-12.25-3.26H683.29v46.62H655v-120h64.23q17.7,0,28.07,9.39t10.35,24.4q0,22.58-19.21,28.72,8.49,2.54,12.34,7.77t3.86,15.54Zm-40.12-96.84H683.29V441.1h30.9q16.75,0,16.76-14.82Q731,411.84,714.56,411.83Z" transform="translate(-545.6 -384.72)"/><path class="cls-1" d="M823.81,512.82q-29.2,0-44.93-16.35t-15.72-46.7q0-30.72,15.82-47.88t44.83-17.17q29,0,44.74,17.26t15.73,48.33q0,30.72-15.55,46.61T823.81,512.82Zm0-24q13.74,0,22.79-9.66t9-28.82q0-20.06-8.19-30.44t-23.64-10.39q-15.45,0-23.73,10.39t-8.29,30.44Q791.79,488.8,823.81,488.79Z" transform="translate(-545.6 -384.72)"/><path class="cls-1" d="M951,512.82q-29.21,0-44.93-16.35t-15.73-46.7q0-30.72,15.82-47.88T951,384.72q29,0,44.73,17.26t15.73,48.33q0,30.72-15.54,46.61T951,512.82Zm0-24a29.9,29.9,0,0,0,22.79-9.66q9-9.66,9-28.82,0-20.06-8.19-30.44T951,409.48q-15.47,0-23.74,10.39t-8.29,30.44Q918.93,488.8,951,488.79Z" transform="translate(-545.6 -384.72)"/><path class="cls-1" d="M1129.71,508.67h-35.6l-35.22-52.22-11.3,10.48v41.74H1019v-120h28.64v44.45l43.13-44.45h37.68l-49,47Z" transform="translate(-545.6 -384.72)"/><path class="cls-1" d="M1223.52,508.67h-89.1v-120h29.2v95.58h59.9Z" transform="translate(-545.6 -384.72)"/><path class="cls-1" d="M1264,508.67h-29.2V464.22l-42.57-75.52h33.91l23.73,46.8,21.48-46.8h33.53L1264,464.76Z" transform="translate(-545.6 -384.72)"/><path class="cls-1" d="M1413.2,508.67h-26.75l-49.35-75.88v75.88h-26.94v-120h30.71l45,72.09V388.7h27.31Z" transform="translate(-545.6 -384.72)"/><path class="cls-1" d="M627.35,647.65h-19V592q0-11.37-4.62-16.26t-13.84-4.88q-13.75,0-19.59,8.68t-5.84,22v46.07H545.6V526.24h18.84v49.14a25.5,25.5,0,0,1,11.39-13.91q8.38-5.06,19.88-5.06,14.12,0,22.88,7.68t8.76,22.13Z" transform="translate(-545.6 -384.72)"/><path class="cls-1" d="M720.4,647.65H702.69V630.49Q694.21,650,671.24,650q-14.7,0-23.46-8.58T639,617.12V558.76h18.83V611.7q0,12.1,4.62,17.61t14.6,5.51q13.17,0,18.93-8.22t5.74-21.41V558.76H720.4Z" transform="translate(-545.6 -384.72)"/><path class="cls-1" d="M750.54,647.65H732.27V526.24h18.65v49.14q9-19,30.89-19,17.33,0,27.69,12.56t10.35,33.69q0,22.05-11.11,34.69T779.92,650q-21.66,0-29.38-18.25Zm25.05-12.46a22.13,22.13,0,0,0,18.18-8.59q6.87-8.58,6.87-23.94,0-14.62-6.5-22.67t-18.36-8q-12.62,0-19.12,8.67t-6.5,22.77q0,15.17,7.16,23.48A23,23,0,0,0,775.59,635.19Z" transform="translate(-545.6 -384.72)"/></svg>